<?xml version="1.0" standalone="no"?>
<!DOCTYPE svg PUBLIC "-//W3C//DTD SVG 20010904//EN"
 "http://www.w3.org/TR/2001/REC-SVG-20010904/DTD/svg10.dtd">
<svg version="1.0" xmlns="http://www.w3.org/2000/svg"
 width="96.000000pt" height="96.000000pt" viewBox="0 0 96.000000 96.000000"
 preserveAspectRatio="xMidYMid meet">
<metadata>
Created by potrace 1.14, written by Peter Selinger 2001-2017
</metadata>
<g transform="translate(0.000000,96.000000) scale(0.100000,-0.100000)"
fill="#000000" stroke="none">
<path d="M680 820 l0 -60 -60 0 -60 0 0 -40 0 -40 60 0 60 0 0 -60 0 -60 40 0
40 0 0 60 0 60 60 0 60 0 0 40 0 40 -60 0 -60 0 0 60 0 60 -40 0 -40 0 0 -60z"/>
<path d="M165 748 c-44 -24 -45 -30 -45 -310 l0 -269 25 -24 24 -25 269 0 269
0 27 25 26 24 0 176 0 175 -60 0 -60 0 0 60 0 60 -60 0 -60 0 0 60 0 60 -167
0 c-102 0 -176 -5 -188 -12z m433 -448 c40 -49 72 -92 72 -95 0 -3 -106 -5
-236 -5 l-235 0 58 75 c31 41 60 75 64 75 3 0 20 -22 38 -50 18 -27 36 -50 41
-50 4 0 31 32 60 70 29 39 55 70 59 70 4 0 40 -40 79 -90z"/>
</g>
</svg>
